<svg width="351" height="143" viewBox="0 0 351 143" fill="none" xmlns="http://www.w3.org/2000/svg">
<g clip-path="url(#clip0_93_2)">
<path d="M109 58C109.009 58.7865 109.019 59.573 109.028 60.3833C109.082 63.9645 109.166 67.5444 109.25 71.125C109.264 72.3625 109.278 73.6 109.293 74.875C109.426 83.7713 109.426 83.7713 114 91C118.474 93.9826 122.755 93.6002 128 93C133.092 90.636 135.02 88.1772 137 83C137.499 78.8796 137.602 74.7721 137.688 70.625C137.722 69.5074 137.756 68.3898 137.791 67.2383C137.873 64.4923 137.942 61.7466 138 59C138.66 59 139.32 59 140 59C140.117 62.9997 140.188 66.9991 140.25 71C140.284 72.1254 140.317 73.2507 140.352 74.4102C140.434 81.4561 139.871 86.0474 136 92C130.281 96.6467 125.287 97.7142 118 97C111.78 95.6484 108.653 93.1377 105 88C104.66 88.4705 104.319 88.941 103.969 89.4258C99.6391 94.9876 95.7429 97.3355 88.7695 98.3125C82.8527 98.6384 79.0762 96.9534 74 94C74.1238 95.2375 74.2475 96.475 74.375 97.75C74.3624 105.728 70.052 113.157 64.75 118.938C56.5346 126.404 47.1582 128.45 36.3555 128.34C28.7899 127.574 22.5317 123.566 17.4727 117.992C11.1274 109.408 10.8819 99.7438 12.3672 89.457C14.1203 82.6726 18.9207 77.6376 24 73C24.99 72.67 25.98 72.34 27 72C27 72.99 27 73.98 27 75C25.5359 76.1979 24.0712 77.3949 22.6016 78.5859C18.546 82.1667 17.2214 85.181 16.582 90.4336C16.2306 99.865 17.4024 106.922 23.832 114.023C29.9111 119.707 35.5729 123.183 44 123.438C50.2777 123.177 55.232 122.532 59.9727 118.195C66.3749 111.228 67.3051 105.695 67.4141 96.4492C67.4334 95.4353 67.4528 94.4213 67.4728 93.3767C67.5324 90.147 67.5789 86.9174 67.625 83.6875C67.6632 81.4941 67.7023 79.3008 67.7422 77.1074C67.8381 71.7384 67.9232 66.3693 68 61C69.98 60.34 71.96 59.68 74 59C74.014 60.1264 74.014 60.1264 74.0283 61.2756C74.0823 64.7052 74.1659 68.1335 74.25 71.5625C74.2642 72.7439 74.2784 73.9254 74.293 75.1426C74.4816 81.8781 74.7523 86.6301 79 92C83.117 94.9926 88.1269 94.6159 93 94C98.0655 91.6054 100.027 89.1734 102 84C102.499 79.8796 102.602 75.7721 102.688 71.625C102.722 70.5074 102.756 69.3898 102.791 68.2383C102.873 65.4923 102.942 62.7466 103 60C106.75 58 106.75 58 109 58Z" fill="#080808"/>
<path d="M164 36C164.006 36.588 164.012 37.176 164.018 37.7819C164.082 43.9143 164.166 50.0462 164.262 56.1782C164.296 58.4653 164.324 60.7524 164.346 63.0396C164.38 66.3314 164.432 69.6225 164.488 72.9141C164.495 73.933 164.501 74.952 164.508 76.0019C164.618 81.3394 164.793 85.5068 168 90C171.536 92.5319 173.978 93.3756 178.306 93.381C179.356 93.3894 180.406 93.3979 181.488 93.4066C183.2 93.3975 183.2 93.3975 184.947 93.3882C186.157 93.3934 187.368 93.3987 188.615 93.4041C191.927 93.415 195.238 93.4125 198.551 93.403C202.022 93.3954 205.493 93.4024 208.964 93.4071C214.794 93.4126 220.624 93.4054 226.453 93.3911C233.185 93.3748 239.917 93.3801 246.649 93.3966C252.436 93.4102 258.223 93.4121 264.01 93.4043C267.463 93.3996 270.916 93.399 274.369 93.4089C278.221 93.4192 282.072 93.4049 285.924 93.3882C287.063 93.3943 288.202 93.4003 289.376 93.4066C294.978 93.3616 299.206 93.2538 304 90C307.533 86.1019 308.126 82.5989 308.316 77.457C308.358 76.3839 308.4 75.3107 308.443 74.2051C308.483 73.0855 308.522 71.966 308.562 70.8125C308.627 69.1158 308.627 69.1158 308.693 67.3848C308.799 64.59 308.902 61.7951 309 59C309.99 58.67 310.98 58.34 312 58C312.117 62.1664 312.188 66.3324 312.25 70.5C312.284 71.673 312.317 72.8461 312.352 74.0547C312.432 81.2308 311.919 85.9269 308 92C302.291 97.7092 296.185 98.2296 288.462 98.2822C287.335 98.2797 286.208 98.2772 285.047 98.2747C283.848 98.2798 282.649 98.2849 281.414 98.2901C278.137 98.3016 274.86 98.3041 271.583 98.3016C268.842 98.3005 266.101 98.3054 263.36 98.3102C256.891 98.3213 250.422 98.3217 243.953 98.3157C237.291 98.3096 230.63 98.3219 223.968 98.3432C218.237 98.3609 212.506 98.3669 206.775 98.3636C203.357 98.3618 199.939 98.3644 196.521 98.3783C192.708 98.3907 188.895 98.3839 185.082 98.3723C183.957 98.38 182.832 98.3876 181.673 98.3955C174.201 98.3453 169.231 97.5701 163.25 92.8125C157.99 86.2374 157.571 79.684 157.707 71.5938C157.711 70.6284 157.716 69.6631 157.72 68.6686C157.737 65.6121 157.774 62.5563 157.812 59.5C157.828 57.4167 157.841 55.3333 157.854 53.25C157.886 48.1664 157.938 43.0833 158 38C161.75 36 161.75 36 164 36Z" fill="#020202"/>
<path d="M335 37C336.65 37 338.3 37 340 37C340 57.13 340 77.26 340 98C338.02 98 336.04 98 334 98C333.977 90.1942 333.959 82.3885 333.948 74.5827C333.943 70.9585 333.936 67.3344 333.925 63.7102C333.914 60.2154 333.908 56.7206 333.905 53.2258C333.902 51.2376 333.895 49.2494 333.887 47.2612C333.887 46.0601 333.887 44.8589 333.886 43.6213C333.884 42.5577 333.882 41.494 333.88 40.3981C334 38 334 38 335 37Z" fill="#141414"/>
<path d="M310 58C310.66 58 311.32 58 312 58C312 66.58 312 75.16 312 84C311.67 84 311.34 84 311 84C310.67 82.35 310.34 80.7 310 79C309.67 79 309.34 79 309 79C308.971 75.6875 308.953 72.3751 308.938 69.0625C308.929 68.117 308.921 67.1714 308.912 66.1973C308.909 65.2981 308.906 64.399 308.902 63.4727C308.897 62.64 308.892 61.8073 308.886 60.9495C309 59 309 59 310 58Z" fill="#2D2D2D"/>
<path d="M310.062 44.9375C311.517 44.9684 311.517 44.9684 313 45C313.688 47.3125 313.688 47.3125 314 50C312.812 51.875 312.812 51.875 311 53C308.863 52.7485 307.541 52.5407 306 51C305.875 48.5 305.875 48.5 306 46C307 45 307 45 310.062 44.9375Z" fill="#0C0C0C"/>
<path d="M337.188 25.375C337.786 25.5813 338.384 25.7875 339 26C338.01 26.33 337.02 26.66 336 27C335.67 27.99 335.34 28.98 335 30C336.98 30 338.96 30 341 30C341 30.66 341 31.32 341 32C338.03 32.66 335.06 33.32 332 34C331.812 30.625 331.812 30.625 332 27C335 25 335 25 337.188 25.375Z" fill="#262626"/>
<path d="M25 72C25.66 72 26.32 72 27 72C27 72.99 27 73.98 27 75C25.5835 76.2518 24.1575 77.4961 22.668 78.6602C20.2533 80.5998 18.1567 82.7799 16 85C16 81.2613 16.9049 80.6345 19.375 77.9375C20.0015 77.2453 20.628 76.553 21.2734 75.8398C22.494 74.5392 23.7388 73.2612 25 72Z" fill="#171717"/>
<path d="M336 15C338.062 15.4375 338.062 15.4375 340 16C339.812 18.375 339.812 18.375 339 21C336.625 22.375 336.625 22.375 334 23C333.01 22.67 332.02 22.34 331 22C332.32 21.67 333.64 21.34 335 21C334.979 20.1956 334.959 19.3913 334.938 18.5625C335 16 335 16 336 15Z" fill="#4E4E4E"/>
<path d="M97 94C97 94.66 97 95.32 97 96C94.36 96.66 91.72 97.32 89 98C90 95 90 95 92.4375 93.75C95 93 95 93 97 94Z" fill="#0F0F0F"/>
</g>
<defs>
<clipPath id="clip0_93_2">
<rect width="351" height="143" fill="white"/>
</clipPath>
</defs>
</svg>
