<?xml version="1.0" encoding="iso-8859-1"?>
<!-- Generator: Adobe Illustrator 26.0.1, SVG Export Plug-In . SVG Version: 6.00 Build 0)  -->
<svg version="1.1" id="Layer_1" xmlns="http://www.w3.org/2000/svg" xmlns:xlink="http://www.w3.org/1999/xlink" x="0px" y="0px"
	 viewBox="21 203 458 94" xml:space="preserve">
<g>
	<path d="M475,271.631c-0.905,3.986-2.279,7.746-5,10.912c-4.222,4.913-9.64,7.647-15.971,8.38
		c-9.787,1.133-18.306-1.759-25.377-8.701c-1.096-1.076-1.887-2.386-2.752-3.643c-0.613-0.891-0.407-1.481,0.423-2.041
		c1.361-0.919,2.721-1.841,4.038-2.822c0.963-0.718,1.389-0.389,1.785,0.613c2.997,7.585,8.933,11.597,16.698,12.545
		c9.655,1.179,19.026-4.563,18.952-16.182c-0.033-5.101-2.907-8.63-6.85-11.455c-4.566-3.271-9.778-5.317-14.775-7.77
		c-4.39-2.155-8.471-4.702-12.063-8.105c-8.858-8.392-7.511-23.911,3.458-30.896c9.688-6.169,23.567-4.616,31.647,3.524
		c4.365,4.398,3.952,6.705-1.639,9.501c-1.456,0.728-1.421-0.494-1.681-1.207c-2.182-6-6.388-9.708-12.589-11.124
		c-11.275-2.575-20.733,7.561-17.371,18.609c1.135,3.731,3.988,5.99,7.102,7.956c3.827,2.417,7.944,4.279,12.055,6.153
		c4.277,1.949,8.342,4.268,12.115,7.104c4.065,3.056,6.669,7.012,7.797,11.957C475,267.17,475,269.401,475,271.631z"/>
	<path d="M25.025,251.94c0.736-18.829,9.607-32.5,26.433-40.931c5.005-2.508,10.472-3.677,16.114-3.965
		c12.472-0.636,23.34,3.235,31.878,12.303c9.041,9.601,12.655,21.297,10.608,34.382c-2.512,16.053-11.341,27.855-25.932,34.738
		c-15.653,7.383-30.827,5.824-44.621-4.924C30.884,276.828,24.554,264.315,25.025,251.94z M71.415,286.348
		c2.079,0.124,4.108-0.182,6.124-0.576c7.221-1.411,12.898-5.464,17.813-10.674c7.509-7.96,10.623-17.377,8.189-28.15
		c-3.382-14.966-12.443-25.373-26.54-31.292c-7.993-3.356-16.147-3.752-24.281-0.285c-5.392,2.298-9.877,5.81-13.641,10.266
		c-6.397,7.573-9.397,16.227-7.573,26.102c1.894,10.255,7.141,18.682,15.25,25.199C53.929,282.704,62.06,286.205,71.415,286.348z"/>
	<path d="M216.586,226.894c0,0.636,0,1.273,0,1.909c0,19.482,0.001,38.963-0.001,58.445c0,2.357-1.25,3.609-3.594,3.661
		c-0.51,0.011-0.792-0.166-0.825-0.662c-0.038-0.585-0.049-1.172-0.05-1.758c-0.002-25.115-0.002-50.23-0.001-75.345
		c0-2.395,1.173-3.564,3.583-3.632c0.935-0.027,1.119,0.744,1.46,1.312c4.073,6.789,8.135,13.586,12.189,20.387
		c7.358,12.342,14.71,24.687,22.059,37.034c1.127,1.894,2.226,3.804,3.414,5.835c0.472-0.807,0.288-1.458,0.288-2.071
		c0.012-19.658,0.01-39.316,0.011-58.973c0-2.311,1.318-3.609,3.582-3.576c0.499,0.007,0.796,0.18,0.832,0.676
		c0.038,0.526,0.042,1.055,0.042,1.583c0.002,25.289,0.002,50.577,0.002,75.866c0,2.254-1.479,3.618-3.714,3.446
		c-0.944-0.073-1.187-0.889-1.561-1.513c-4.125-6.896-8.225-13.806-12.336-20.71c-8.161-13.706-16.323-27.411-24.487-41.116
		c-0.177-0.297-0.378-0.58-0.568-0.869C216.803,226.846,216.694,226.87,216.586,226.894z"/>
	<path d="M341.486,287.604c0.087,0.772-0.371,1.048-0.892,1.213c-2.067,0.656-4.146,1.275-6.214,1.93
		c-1.013,0.321-1.385-0.291-1.659-1.074c-1.921-5.478-3.835-10.958-5.76-16.434c-0.991-2.82-2.023-5.626-2.984-8.456
		c-0.298-0.877-0.828-1.167-1.702-1.165c-8.389,0.014-16.779,0.021-25.168-0.01c-1.1-0.004-1.502,0.517-1.828,1.47
		c-2.582,7.543-5.214,15.07-7.83,22.601c-0.506,1.457-3.528,3.324-5.034,3.09c-0.925-0.144-0.505-0.76-0.353-1.204
		c1.923-5.6,3.862-11.196,5.8-16.791c4.144-11.965,8.29-23.93,12.434-35.895c2.858-8.253,5.71-16.508,8.578-24.758
		c0.424-1.219,3.306-2.895,4.543-2.686c0.703,0.119,0.867,0.709,1.062,1.265c3.061,8.741,6.115,17.484,9.186,26.222
		c4.393,12.5,8.797,24.995,13.198,37.492c1.48,4.203,2.962,8.405,4.442,12.608C341.38,287.246,341.444,287.471,341.486,287.604z
		 M309.773,223.821c-0.142,0.025-0.285,0.05-0.427,0.075c-3.917,11.419-7.822,22.842-11.766,34.252
		c-0.443,1.282,0.173,1.383,1.156,1.381c7.276-0.011,14.552-0.017,21.828,0.004c1.185,0.003,1.589-0.303,1.148-1.557
		c-3.31-9.401-6.572-18.818-9.852-28.23C311.17,227.769,310.469,225.796,309.773,223.821z"/>
	<path d="M141.601,240.499c0,9.565-0.203,19.137,0.077,28.694c0.165,5.615,1.878,10.85,6.381,14.757
		c7.126,6.182,24.622,6.195,29.959-7.383c1.372-3.489,2.074-7.091,2.081-10.811c0.03-17.548,0.013-35.096,0.014-52.644
		c0-2.358,1.123-3.497,3.449-3.588c0.615-0.024,0.878,0.222,0.904,0.783c0.028,0.586,0.032,1.173,0.033,1.76
		c0.002,17.607-0.003,35.213,0.004,52.82c0.002,5.342-0.691,10.542-3.27,15.316c-4.12,7.625-10.676,11.386-19.208,11.996
		c-4.962,0.355-9.806-0.015-14.473-1.899c-7.442-3.004-11.76-8.675-13.852-16.217c-0.818-2.948-1.11-5.974-1.104-9.046
		c0.03-16.785,0.044-33.57-0.026-50.355c-0.008-1.941,0.399-3.075,2.479-3.432c1.489-0.256,2.905-0.917,4.371-1.333
		c1.837-0.521,2.069-0.352,2.079,1.533c0.022,4.284,0.009,8.569,0.009,12.853c0,5.399,0,10.799,0,16.198
		C141.538,240.499,141.57,240.499,141.601,240.499z"/>
	<path d="M383.055,291.124c-7.937,0.048-14.754-2.838-20.677-7.991c-1.376-1.197-2.372-2.745-3.388-4.258
		c-0.677-1.008-0.611-1.79,0.468-2.489c1.328-0.861,2.626-1.775,3.89-2.728c0.987-0.744,1.444-0.357,1.75,0.645
		c2.244,7.343,11.359,13.352,20.149,12.741c10.451-0.727,17.339-9.578,14.984-19.476c-1.044-4.39-4.3-7.002-7.844-9.31
		c-3.502-2.28-7.292-4.008-11.105-5.698c-5.122-2.27-10.02-4.963-14.038-8.927c-10.795-10.648-6.451-28.831,7.996-33.467
		c9.472-3.04,18.174-1.456,25.944,4.817c1.806,1.458,3.03,3.401,4.095,5.449c0.431,0.829,0.313,1.417-0.451,1.947
		c-1.302,0.902-2.614,1.796-3.858,2.775c-1.204,0.948-1.729,0.625-2.202-0.757c-2.093-6.11-6.345-9.956-12.664-11.205
		c-6.303-1.245-11.668,0.637-15.525,5.878c-3.56,4.838-3.555,14.544,3.021,19.061c4.088,2.808,8.497,4.968,12.948,7.084
		c5.78,2.749,11.547,5.514,16.166,10.131c4.871,4.869,6.336,10.76,4.875,17.308C405.006,284.236,395.737,291.102,383.055,291.124z"
		/>
</g>
</svg>
